<?xml version="1.0" standalone="no"?>
<!DOCTYPE svg PUBLIC "-//W3C//DTD SVG 20010904//EN"
 "http://www.w3.org/TR/2001/REC-SVG-20010904/DTD/svg10.dtd">
<svg version="1.0" xmlns="http://www.w3.org/2000/svg"
 width="327.000000pt" height="312.000000pt" viewBox="0 0 327.000000 312.000000"
 preserveAspectRatio="xMidYMid meet">

<g transform="translate(0.000000,312.000000) scale(0.100000,-0.100000)"
fill="#000000" stroke="none">
<path d="M1405 2904 c-277 -42 -538 -175 -741 -378 -525 -526 -525 -1366 0
-1892 570 -569 1509 -513 2000 121 147 189 236 395 270 627 63 423 -75 840
-378 1144 -304 303 -728 443 -1151 378z m675 -712 c261 -87 474 -163 473 -168
-6 -19 -378 -561 -383 -557 -3 3 -10 21 -16 41 l-10 37 -11 -35 c-7 -19 -35
-107 -63 -195 l-50 -160 -186 -145 c-102 -80 -195 -153 -208 -162 -22 -16 -26
-14 -228 147 l-207 165 -45 142 c-24 79 -50 163 -57 187 l-13 44 -16 -37 -15
-38 -188 281 c-103 155 -187 284 -187 289 0 4 186 70 413 147 226 76 435 147
462 157 28 9 52 17 55 18 3 0 219 -71 480 -158z"/>
<path d="M1140 2178 c-245 -83 -446 -152 -448 -154 -2 -1 75 -120 172 -265
159 -238 176 -260 184 -238 5 13 42 133 83 266 41 133 77 238 82 234 4 -4 -22
-104 -59 -221 -36 -118 -66 -221 -67 -229 -1 -20 106 -371 113 -371 9 0 224
469 218 475 -3 3 -45 10 -94 16 -49 7 -93 15 -99 20 -5 6 -1 9 10 9 32 -1 205
-27 210 -31 2 -3 -50 -121 -116 -263 -66 -142 -117 -262 -112 -266 63 -55 214
-170 223 -170 13 0 61 24 115 58 l39 25 -41 36 -42 36 44 50 43 49 45 -39 c25
-22 46 -44 46 -49 1 -4 -12 -24 -29 -43 -16 -18 -30 -38 -30 -43 0 -10 121
-80 139 -80 6 0 60 39 120 86 l109 85 -73 152 c-40 84 -98 203 -129 264 -64
128 -68 116 44 128 30 3 74 8 98 11 23 4 42 2 42 -3 0 -5 -46 -15 -102 -21
-56 -7 -103 -14 -105 -16 -5 -4 229 -486 236 -486 7 0 122 368 121 386 0 6
-31 109 -69 228 -38 119 -64 215 -58 213 6 -2 47 -121 91 -264 l80 -261 59 87
c220 322 300 441 296 445 -9 8 -915 306 -929 305 -8 0 -215 -68 -460 -151z"/>
<path d="M1570 1185 l-34 -35 35 -35 35 -35 34 35 34 35 -35 35 -35 35 -34
-35z"/>
<path d="M1532 1017 c-40 -23 -71 -44 -70 -48 2 -4 35 -32 73 -62 l70 -54 70
54 c39 30 71 58 73 62 2 7 -4 11 -88 59 l-55 31 -73 -42z"/>
</g>
</svg>
